<?xml version="1.0" encoding="UTF-8"?><svg id="a" xmlns="http://www.w3.org/2000/svg" viewBox="0 0 1417.32 1417.32"><path d="M512.59,546.44c-10.28-58.84-146.56-120.81-199.41,44.34-52.85,165.14,45.06,267.89,216.12,342.12,171.05,74.24,271.41-72.28,271.41-72.28,0,0,240.58-258.47-18.9-332.14-259.43-73.66-138.36-253.23-138.38-253.25,0,0,87.18-176.7,260.21-113.6,173.04,63.1,146.46,196.88,146.46,196.88" fill="none" stroke="#ed1a5e" stroke-miterlimit="10" stroke-width="56.69"/><path d="M901.44,1116.03s-126.45-481.41-323.89-461.44-115.36,547.96-115.36,547.96" fill="none" stroke="#ed1a5e" stroke-miterlimit="10" stroke-width="56.69"/><path d="M435.4,1191.14s82.08-173.04,115.36-122.02c33.28,51.02-36.09,99.56-36.09,99.56,0,0,104.86-44.09,107.08,9.15,2.22,53.24-130.22,21.19-130.22,21.19,0,0,37.04,20.97-9.55,63.12-46.59,42.15-46.59-70.99-46.59-70.99Z" fill="none" stroke="#ed1a5e" stroke-miterlimit="10" stroke-width="14.17"/><path d="M865.19,1122.15s73.94-171.99,107.22-120.97c33.28,51.02-16.02,81.38-16.02,81.38,0,0,92.94-26.96,95.15,26.28,2.22,53.24-146.01-4.13-146.01-4.13,0,0,52.84,46.28,6.25,88.43s-46.59-70.99-46.59-70.99Z" fill="none" stroke="#ed1a5e" stroke-miterlimit="10" stroke-width="14.17"/><path d="M1059.4,357.04s7.42-130.89,73.6-66.55c66.18,64.34,0,80.74,0,80.74,0,0,41,2.39,12.02,80.04-28.97,77.65-116.59-62.89-116.59-62.89" fill="none" stroke="#ed1a5e" stroke-miterlimit="10" stroke-width="14.17"/><circle cx="892.45" cy="281.87" r="45.17" fill="#ed1a5e"/></svg>